<svg xmlns="http://www.w3.org/2000/svg" xmlns:xlink="http://www.w3.org/1999/xlink" width="115.299" height="44" viewBox="0 0 115.299 44"><defs><style>.a,.d,.e,.f{fill:none;}.b{clip-path:url(#a);}.c{fill:#fff;opacity:0;}.d,.f{stroke-miterlimit:10;}.e,.f{stroke:#00334d;stroke-width:1.5px;}.g,.i{fill:#00334d;}.g{font-size:12px;font-family:ProximaNova-Bold, Proxima Nova;font-weight:700;letter-spacing:0.1em;}.h,.i{stroke:none;}</style><clipPath id="a"><rect class="a" width="115.299" height="44"/></clipPath></defs><g class="b"><rect class="c" width="126.299" height="44" transform="translate(-11)"/><g transform="translate(99.299 14)"><g class="d" transform="translate(-25.5 -33.077)"><path class="h" d="M41.5,44.75a8,8,0,0,0-16,0V45.4h16Z"/><path class="i" d="M 39.945068359375 43.90306091308594 C 39.52872848510742 40.71766662597656 36.79710006713867 38.25 33.5 38.25 C 30.2028980255127 38.25 27.47127342224121 40.71766662597656 27.05492973327637 43.90306091308594 L 39.945068359375 43.90306091308594 M 41.5 45.40306091308594 L 25.5 45.40306091308594 L 25.5 44.75 C 25.5 40.33171081542969 29.08171081542969 36.75 33.5 36.75 C 37.91828918457031 36.75 41.5 40.33171081542969 41.5 44.75 L 41.5 45.40306091308594 Z"/></g><path class="e" d="M16,0H0" transform="translate(0 16)"/><line class="f" x2="3.673" transform="translate(6.165)"/></g><text class="g" transform="translate(89.299 26)"><tspan x="-77.652" y="0">CONCIERGE</tspan></text></g></svg>