<svg xmlns="http://www.w3.org/2000/svg" width="126.299" height="44" viewBox="0 0 126.299 44"><defs><style>.a{fill:#fff;opacity:0;}.b,.c,.d{fill:none;}.b,.d{stroke-miterlimit:10;}.c,.d{stroke:#be851e;stroke-width:1.5px;}.e,.g{fill:#be851e;}.e{font-size:12px;font-family:ProximaNova-Bold, Proxima Nova;font-weight:700;letter-spacing:0.1em;}.f,.g{stroke:none;}</style></defs><rect class="a" width="126.299" height="44"/><g transform="translate(110.299 14)"><g class="b" transform="translate(-25.5 -33.077)"><path class="f" d="M41.5,44.75a8,8,0,0,0-16,0V45.4h16Z"/><path class="g" d="M 39.945068359375 43.90306091308594 C 39.52872848510742 40.71766662597656 36.79710006713867 38.25 33.5 38.25 C 30.2028980255127 38.25 27.47127342224121 40.71766662597656 27.05492973327637 43.90306091308594 L 39.945068359375 43.90306091308594 M 41.5 45.40306091308594 L 25.5 45.40306091308594 L 25.5 44.75 C 25.5 40.33171081542969 29.08171081542969 36.75 33.5 36.75 C 37.91828918457031 36.75 41.5 40.33171081542969 41.5 44.75 L 41.5 45.40306091308594 Z"/></g><path class="c" d="M16,0H0" transform="translate(0 16)"/><line class="d" x2="3.673" transform="translate(6.165)"/></g><text class="e" transform="translate(100.299 26)"><tspan x="-77.652" y="0">CONCIERGE</tspan></text></svg>