<svg xmlns="http://www.w3.org/2000/svg" width="16" height="17.5" viewBox="0 0 16 17.5"><defs><style>.a,.b,.c{fill:none;}.a,.c{stroke-miterlimit:10;}.b,.c{stroke:#be851e;stroke-width:1.5px;}.d,.e{stroke:none;}.e{fill:#be851e;}</style></defs><g transform="translate(0 0.75)"><g class="a" transform="translate(-25.5 -33.077)"><path class="d" d="M41.5,44.75a8,8,0,0,0-16,0V45.4h16Z"/><path class="e" d="M 39.945068359375 43.90306091308594 C 39.52872848510742 40.71766662597656 36.79710006713867 38.25 33.5 38.25 C 30.2028980255127 38.25 27.47127342224121 40.71766662597656 27.05492973327637 43.90306091308594 L 39.945068359375 43.90306091308594 M 41.5 45.40306091308594 L 25.5 45.40306091308594 L 25.5 44.75 C 25.5 40.33171081542969 29.08171081542969 36.75 33.5 36.75 C 37.91828918457031 36.75 41.5 40.33171081542969 41.5 44.75 L 41.5 45.40306091308594 Z"/></g><path class="b" d="M16,0H0" transform="translate(0 16)"/><line class="c" x2="3.673" transform="translate(6.165)"/></g></svg>