<svg xmlns="http://www.w3.org/2000/svg" width="180.072" height="44" viewBox="0 0 180.072 44"><defs><style>.a{fill:none;}.b{fill:#be851e;}</style></defs><g transform="translate(-250.718 -338)"><path class="a" d="M265.7,369.648c.337-.125.612-.39.6-.581a.689.689,0,0,0-.332-.451c-1.066-.694-2.731-.4-4.024.348A4.21,4.21,0,0,0,265.7,369.648Z"/><path class="a" d="M423.763,355.61a17.748,17.748,0,0,0-2.287-2.908l-.291-.275c-1.973,1.424-4.836,2.017-6.865.7a2.715,2.715,0,0,1-1.281-2.079A2.791,2.791,0,0,1,415,348.4a6.4,6.4,0,0,1,6.091,1.2,6.386,6.386,0,0,0,.937-6.027c-.981-2.573-3.729-3.491-5.974-3.493H265.363c-2.232,0-4.964.92-5.939,3.493a6.419,6.419,0,0,0,.932,6.027,6.335,6.335,0,0,1,6.054-1.2,2.789,2.789,0,0,1,1.952,2.655,2.719,2.719,0,0,1-1.273,2.079c-2.017,1.312-4.863.719-6.824-.7l-.289.275a17.709,17.709,0,0,0-2.273,2.908,22.27,22.27,0,0,1-3.662,4.39,24.547,24.547,0,0,1,3.662,4.39,17.709,17.709,0,0,0,2.273,2.908l.289.275c1.961-1.424,4.807-2.017,6.824-.7a2.719,2.719,0,0,1,1.273,2.079,2.789,2.789,0,0,1-1.952,2.655,6.335,6.335,0,0,1-6.054-1.2,6.419,6.419,0,0,0-.932,6.027c.975,2.573,3.707,3.491,5.939,3.493h6.744l135.105,0,2.06,0h6.785c2.245,0,4.993-.92,5.974-3.493a6.386,6.386,0,0,0-.937-6.027A6.4,6.4,0,0,1,415,371.6a2.791,2.791,0,0,1-1.964-2.655,2.715,2.715,0,0,1,1.281-2.079c2.029-1.312,4.892-.719,6.865.7l.291-.275a17.748,17.748,0,0,0,2.287-2.908,24.551,24.551,0,0,1,3.684-4.39A22.281,22.281,0,0,1,423.763,355.61Z"/><path class="a" d="M415.451,368.616a.691.691,0,0,0-.333.451c-.011.191.266.456.6.581a4.256,4.256,0,0,0,3.778-.684C418.2,368.214,416.524,367.922,415.451,368.616Z"/><path class="a" d="M265.964,351.384a.689.689,0,0,0,.332-.451c.011-.191-.264-.456-.6-.581a4.21,4.21,0,0,0-3.755.684C263.233,351.786,264.9,352.078,265.964,351.384Z"/><path class="a" d="M415.722,350.352c-.338.125-.615.39-.6.581a.691.691,0,0,0,.333.451c1.073.694,2.748.4,4.049-.348A4.256,4.256,0,0,0,415.722,350.352Z"/><path class="b" d="M425.481,354.433a19.476,19.476,0,0,0-2.582-3.251l-.226-.214a8.483,8.483,0,0,0,1.3-8.134c-1.135-2.98-4.17-4.832-7.92-4.834h-150.7c-3.727,0-6.743,1.854-7.872,4.834a8.527,8.527,0,0,0,1.3,8.134l-.224.214a19.4,19.4,0,0,0-2.567,3.251c-1.47,2.158-2.86,4.195-5.277,4.517v2.1c2.417.322,3.807,2.359,5.277,4.517a19.437,19.437,0,0,0,2.567,3.251l.224.214a8.527,8.527,0,0,0-1.3,8.134c1.129,2.98,4.145,4.832,7.872,4.834h150.7c3.75,0,6.785-1.854,7.92-4.834a8.483,8.483,0,0,0-1.3-8.134l.226-.214a19.517,19.517,0,0,0,2.582-3.251c1.479-2.158,2.878-4.195,5.309-4.517v-2.1C428.359,358.628,426.96,356.591,425.481,354.433Zm-1.718,9.957a17.748,17.748,0,0,1-2.287,2.908l-.291.275c-1.973-1.424-4.836-2.017-6.865-.7a2.715,2.715,0,0,0-1.281,2.079A2.791,2.791,0,0,0,415,371.6a6.4,6.4,0,0,0,6.091-1.2,6.386,6.386,0,0,1,.937,6.027c-.981,2.573-3.729,3.491-5.974,3.493h-6.785l-2.06,0-135.105,0h-6.744c-2.232,0-4.964-.92-5.939-3.493a6.419,6.419,0,0,1,.932-6.027,6.335,6.335,0,0,0,6.054,1.2,2.789,2.789,0,0,0,1.952-2.655,2.719,2.719,0,0,0-1.273-2.079c-2.017-1.312-4.863-.719-6.824.7l-.289-.275a17.709,17.709,0,0,1-2.273-2.908,24.547,24.547,0,0,0-3.662-4.39,22.27,22.27,0,0,0,3.662-4.39,17.709,17.709,0,0,1,2.273-2.908l.289-.275c1.961,1.424,4.807,2.017,6.824.7a2.719,2.719,0,0,0,1.273-2.079,2.789,2.789,0,0,0-1.952-2.655,6.335,6.335,0,0,0-6.054,1.2,6.419,6.419,0,0,1-.932-6.027c.975-2.573,3.707-3.491,5.939-3.493H416.057c2.245,0,4.993.92,5.974,3.493a6.386,6.386,0,0,1-.937,6.027A6.4,6.4,0,0,0,415,348.4a2.791,2.791,0,0,0-1.964,2.655,2.715,2.715,0,0,0,1.281,2.079c2.029,1.312,4.892.719,6.865-.7l.291.275a17.748,17.748,0,0,1,2.287,2.908,22.281,22.281,0,0,0,3.684,4.39A24.551,24.551,0,0,0,423.763,364.39Zm-4.263,4.574a4.256,4.256,0,0,1-3.778.684c-.338-.125-.615-.39-.6-.581a.691.691,0,0,1,.333-.451C416.524,367.922,418.2,368.214,419.5,368.964Zm-157.56,0c1.293-.75,2.958-1.042,4.024-.348a.689.689,0,0,1,.332.451c.011.191-.264.456-.6.581A4.21,4.21,0,0,1,261.94,368.964Zm0-17.928a4.21,4.21,0,0,1,3.755-.684c.337.125.612.39.6.581a.689.689,0,0,1-.332.451C264.9,352.078,263.233,351.786,261.94,351.036Zm157.56,0c-1.3.75-2.976,1.042-4.049.348a.691.691,0,0,1-.333-.451c-.011-.191.266-.456.6-.581A4.256,4.256,0,0,1,419.5,351.036Z"/></g></svg>