<svg xmlns="http://www.w3.org/2000/svg" width="80" height="27.835" viewBox="0 0 80 27.835"><defs><style>.a{fill:#3c1504;}</style></defs><g transform="translate(-206.684 -155.889)"><g transform="translate(206.684 155.889)"><path class="a" d="M306.3,155.889a7.559,7.559,0,1,0,7.3,7.553A7.431,7.431,0,0,0,306.3,155.889Zm3.642,10.476a3.637,3.637,0,1,1-7.273,0v-5.844a3.637,3.637,0,1,1,7.273,0Z" transform="translate(-281.719 -155.889)"/><path class="a" d="M217.8,165.366a3.769,3.769,0,0,0,2.819-3.389c0-3.37-2.626-3.745-5.355-3.745h-8.58v.932h2.288l-.006,16.712c-.71.224-1.413.467-2.1.716v1.114a94.183,94.183,0,0,1,10.473-3.094,5.153,5.153,0,0,0,4.331-5.089A3.91,3.91,0,0,0,217.8,165.366Zm-5.5-6.192h2.462a2.539,2.539,0,0,1,2.706,2.78,2.671,2.671,0,0,1-1.738,2.8,7.536,7.536,0,0,1-3.429.7Zm2.352,15.157q-1.191.282-2.354.589v-8.036c.8-.083,1.51-.159,2.113-.223,2.946-.305,3.893.944,3.893,3.124A4.572,4.572,0,0,1,214.65,174.331Z" transform="translate(-206.684 -157.793)"/><path class="a" d="M568.892,176.024l.007-16.862c3.157,0,4.329,2.232,4.354,5.323l.875.2.009-6.458h-13.8v5.049h.738c.007-2.294,1.054-4.147,4.366-4.119l0,15.773c-.819-.242-1.651-.473-2.49-.7v1.049c2.858.761,5.524,1.624,8.069,2.58v-1.076C570.325,176.53,569.619,176.271,568.892,176.024Z" transform="translate(-494.137 -157.793)"/><path class="a" d="M479.894,171.731c2.268.265,3.79.461,3.851.464.286.023,3.092.9,3.248-3.523l.613.235.01,5.026a116.6,116.6,0,0,0-12.6-1.834v-.9c.63.061,1.252.127,1.85.191V159.186h-1.97v-.94h12.714v4.492h-.77a3.367,3.367,0,0,0-3.369-3.558h-3.575v5.1c1.993.087,3.106.333,3.209-1.927h.6v5.782h-.6c-.188-2.343-.93-2.854-3.209-2.854Z" transform="translate(-424.687 -157.805)"/><path class="a" d="M391.009,159.164h-1.556v-.937h4.31v.937h-1.481l-5.492,12.943h-.77l-5.71-12.929h-2.555v-.951h8.161v.931H383.7l3.678,8.513Z" transform="translate(-345.733 -157.789)"/></g><g transform="translate(233.962 175.423)"><path class="a" d="M354.874,267.131c0,1.365,1.331.7,1.331,1.125,0,.24-.219.2-.583.2s-.988-.047-1.413-.047-1.364.047-1.64.047c-.079,0-.09-.143-.09-.18,0-.457,1.181.12,1.181-1.038v-4.985c0-.712-.217-.7-.379-.7a5.2,5.2,0,0,0-.711.118c-.126,0-.16-.168-.16-.2,0-.242.286-.268.423-.3a4.248,4.248,0,0,0,2.02-.927.114.114,0,0,1,.115.12c0,.215-.094.748-.094,1.206Z" transform="translate(-352.41 -260.242)"/><path class="a" d="M386.817,260.242a2.071,2.071,0,0,1,2.274,1.845,1.675,1.675,0,0,1-1.425,1.624v.027c1.012.469,1.745.952,1.745,2.366,0,1.7-1.39,2.438-2.846,2.438-2.133,0-2.65-1.315-2.65-2.245a2.265,2.265,0,0,1,1.33-2.041,1.936,1.936,0,0,1-.951-1.763A2.34,2.34,0,0,1,386.817,260.242Zm-1.125,4.295a1.263,1.263,0,0,0-.824,1.349c0,1.183.632,2.257,1.858,2.257.849,0,1.733-.42,1.733-1.424a1.6,1.6,0,0,0-1.195-1.559Zm.85-3.887a1.3,1.3,0,0,0-1.377,1.279c0,.976,1.608,1.522,1.951,1.522a1.126,1.126,0,0,0,1.124-1.244A1.512,1.512,0,0,0,386.543,260.65Z" transform="translate(-378.018 -260.242)"/><path class="a" d="M427,267.217c1.138,0,1.273-.919,1.552-.919a.173.173,0,0,1,.156.169,4.834,4.834,0,0,1-.525,1.257c-.115.217-.277.734-.63.734-.3,0-1.194-.047-2.4-.047-.725,0-1.194.047-1.448.047-.139,0-.287-.01-.287-.12,0-.207.184-.349,1.6-2.208.63-.834,1.765-2.514,1.765-3.588a1.257,1.257,0,0,0-1.353-1.362c-.953,0-1.4.787-1.607.787-.139,0-.186-.074-.186-.157a2.711,2.711,0,0,1,2.471-1.567A1.749,1.749,0,0,1,428,262.025c0,1.749-3.04,4.744-3.04,5.045,0,.086.079.147.379.147Z" transform="translate(-410.126 -260.242)"/><path class="a" d="M464.791,267.217c1.134,0,1.273-.919,1.547-.919a.176.176,0,0,1,.16.169,4.785,4.785,0,0,1-.528,1.257c-.112.217-.274.734-.628.734-.3,0-1.194-.047-2.4-.047-.724,0-1.194.047-1.445.047-.136,0-.285-.01-.285-.12,0-.207.182-.349,1.593-2.208.631-.834,1.765-2.514,1.765-3.588a1.256,1.256,0,0,0-1.354-1.362c-.951,0-1.4.787-1.606.787-.137,0-.181-.074-.181-.157a2.7,2.7,0,0,1,2.466-1.567,1.75,1.75,0,0,1,1.892,1.783c0,1.749-3.038,4.744-3.038,5.045,0,.086.08.147.377.147Z" transform="translate(-440.846 -260.242)"/></g></g></svg>