<svg xmlns="http://www.w3.org/2000/svg" width="80" height="56.996" viewBox="0 0 80 56.996"><defs><style>.a,.b{fill:#e50019;}.b{fill-rule:evenodd;}</style></defs><g transform="translate(-225.184 -369.434)"><path class="a" d="M284.257,387.069h3.257l2.543-5.153h9.2l2.449,5.153h3.481l-8.512-17.2h-3.588Zm6.74-7.057,3.746-7.593,3.607,7.593Zm-13.113,7.057h3.208v-17.2h-3.208Zm-24.517,0h3.256l2.544-5.153h9.2l2.449,5.153h3.48l-8.512-17.2h-3.587Zm6.739-7.057,3.746-7.593,3.607,7.593Zm-27.473,1.514A4.953,4.953,0,0,0,235,385.94a11.78,11.78,0,0,0,6.685,1.64,15.7,15.7,0,0,0,6.428-1.23,4.2,4.2,0,0,0,2.766-4.09,3.811,3.811,0,0,0-2.168-3.5,11.709,11.709,0,0,0-3.561-1.09l-3.19-.55a25.5,25.5,0,0,1-4.134-.938,1.949,1.949,0,0,1-1.394-1.853,2.484,2.484,0,0,1,1.18-2.017,6.672,6.672,0,0,1,3.876-.868q3.341,0,4.734,1.352a3.756,3.756,0,0,1,.98,2.125h2.984a4.386,4.386,0,0,0-2.512-4.177,13.081,13.081,0,0,0-6.1-1.307,10.455,10.455,0,0,0-6.033,1.485,4.476,4.476,0,0,0-2.129,3.8,3.439,3.439,0,0,0,2.167,3.217,17.1,17.1,0,0,0,4.272,1.137l3.081.528a14.26,14.26,0,0,1,3.684,1.022,2.081,2.081,0,0,1,1.161,2.007q0,1.877-2.74,2.6a12.21,12.21,0,0,1-3.139.376q-3.849,0-5.372-1.711a3.933,3.933,0,0,1-.908-2.379Zm-7.448,5.543h3.208v-17.2h-3.208Z" transform="translate(0 0)"/><path class="a" d="M297.068,407.163h.6v-2.812h-.6Zm-3.5,0h2.768v-.335h-2.18v-2.478h-.588Zm-2.776-.26a1.774,1.774,0,0,1-1.184-.321,1.085,1.085,0,0,1,.061-1.672,1.866,1.866,0,0,1,1.1-.3,1.78,1.78,0,0,1,1.094.3.953.953,0,0,1,.4.8,1.165,1.165,0,0,1-.347.829,1.5,1.5,0,0,1-1.124.362m-.061-2.629a2.368,2.368,0,0,0-1.662.52,1.317,1.317,0,0,0,.074,2.022,2.574,2.574,0,0,0,1.577.429,2.488,2.488,0,0,0,1.653-.49,1.311,1.311,0,0,0,.493-1.047,1.208,1.208,0,0,0-.431-.956,2.566,2.566,0,0,0-1.7-.478m-3.225.884a.39.39,0,0,1-.245.385,1.589,1.589,0,0,1-.639.11h-1.163v-.976h1.163a1.87,1.87,0,0,1,.531.06.426.426,0,0,1,.353.421m-2.635,2.005h.589v-1.189h1.357a1.582,1.582,0,0,0,.967-.244.71.71,0,0,0,.318-.574.66.66,0,0,0-.355-.594,1.812,1.812,0,0,0-.931-.211h-1.945Zm-4.463,0h.6l.471-.843h1.706l.454.843h.643l-1.578-2.812h-.663Zm1.249-1.153.695-1.243.669,1.243Zm-5.255,1.153h.564v-2.273l2.2,2.273h.663v-2.812h-.564v2.272l-2.163-2.272h-.7Z" transform="translate(-23.248 -15.815)"/><path class="b" d="M288.833,453.826a1.75,1.75,0,0,0,.914-.579,12.392,12.392,0,0,0,.858-1.2,12.532,12.532,0,0,1,1-1.446l.29-.323a12.632,12.632,0,0,0,1.2-1.458,6.091,6.091,0,0,0,.478-.98,1.772,1.772,0,0,1,.1-.221l.141-.21.521-.774c.255-.389.555-.888.752-1.22l.067-.109a1.121,1.121,0,0,1,.767-.628.857.857,0,0,1,.64.168.156.156,0,0,1,.056.115l0,.061a1.473,1.473,0,0,1-.163.643l-.1.181a3.818,3.818,0,0,0-.51,1.245,5.623,5.623,0,0,0-.091,1.028v.091c0,.206-.006.451.236.531a1.394,1.394,0,0,0,.754.021,3.891,3.891,0,0,0,1.127-.537l.066-.044c.346-.228,1.157-.763,1.5-.71a.673.673,0,0,1,.5.369.211.211,0,0,1-.006.208l-.019.025a4.4,4.4,0,0,1-.466.553,2.947,2.947,0,0,0-.257.3,2.058,2.058,0,0,1-.295.33l-.078.062a7.709,7.709,0,0,1-1.139.8l-.034.017a3.025,3.025,0,0,1-1.241.376l-.392.034a3.337,3.337,0,0,0-1.417.321,4.31,4.31,0,0,0-1.7,1.578.942.942,0,0,0,.54,1.285,7.7,7.7,0,0,0,1.455.561l.144.039a5.293,5.293,0,0,0,2.165.171l1.87-.168.486-.043.27-.022a4.923,4.923,0,0,0,.71-.085,3.8,3.8,0,0,1,1.154-.19,1.076,1.076,0,0,1,.388.186l.26.156.128.066a1.47,1.47,0,0,1,.428.28,1.2,1.2,0,0,1,.283.509.8.8,0,0,1,.011.45l0,.019a.922.922,0,0,1-.144.365l-.089.12a.971.971,0,0,0-.189.332l-.049.192a1.05,1.05,0,0,1-.171.442.535.535,0,0,1-.518.169,1.977,1.977,0,0,1-.584-.486l-.009-.01a2.185,2.185,0,0,0-.995-.632,4.816,4.816,0,0,0-1.1-.08l-.328,0a9.33,9.33,0,0,0-1.779.207l-.281.072a3.76,3.76,0,0,1-1.542.193,2.354,2.354,0,0,1-.879-.434l-.254-.17a5.607,5.607,0,0,0-1.908-.675c-.43.011-1.326.034-2.123,1.474a5.716,5.716,0,0,1-.534.821c-.073.1-.141.183-.215.3a7.727,7.727,0,0,0-.517,1.054l-.1.254a3.794,3.794,0,0,1-.353.8c-.145.2-.269.367-.9.181-.387-.114-.791-.266-1.116-.39-.209-.08-.374-.141-.47-.168l-.058-.017c-.165-.045-.414-.111-.505-.288a.467.467,0,0,1,.009-.378l.288-.709a14.121,14.121,0,0,0,.784-2.148,4.766,4.766,0,0,0-.028-1.379l-.015-.075a5.326,5.326,0,0,1-.12-1.6l.013-.2a5.148,5.148,0,0,0-.2-2.377,5.826,5.826,0,0,0-.695-1.143l-.039-.051a.537.537,0,0,1-.028-.667l.108-.167a3.015,3.015,0,0,0,.638-1.769c-.045-.513-.055-.978-.064-1.352l-.016-.527a.9.9,0,0,1,.1-.553.47.47,0,0,1,.076-.087,1.326,1.326,0,0,1,.345-.162l.178-.037a2.76,2.76,0,0,1,.6,0,.881.881,0,0,1,.405.337l.016.02a1.846,1.846,0,0,1,.414.886,13.1,13.1,0,0,1-.112,1.923l-.063.44a5.9,5.9,0,0,0-.1,1.555l.109.668c.092.542.2,1.158.215,1.459l.017.284c.034.571.084,1.433.135,1.631A1.94,1.94,0,0,0,288.833,453.826Z" transform="translate(-27.307 -33.793)"/></g></svg>