<svg xmlns="http://www.w3.org/2000/svg" width="80" height="9.899" viewBox="0 0 80 9.899"><defs><style>.a{fill:#231f20;}</style></defs><g transform="translate(-17.584 -23.258)"><path class="a" d="M47.527,26.826H43.972l-.008-3.39H42.205v9.449h1.759l.008-4.452h3.555l.006,4.453h1.761V23.436H47.534Z" transform="translate(-4.768 -0.034)"/><path class="a" d="M78.755,32.892H72.342V23.435h1.813l0,7.714-.062.085h3.1a2.491,2.491,0,0,0,1.564-.3Z" transform="translate(-10.604 -0.034)"/><path class="a" d="M101.481,27.584l-.11-.039.116-.024a1.764,1.764,0,0,0,1.207-1.959c-.024-1.29-1.3-2.126-3.38-2.126H95.97v9.457h3.584c2.311,0,3.486-.914,3.486-2.8A2.45,2.45,0,0,0,101.481,27.584Zm-3.7-2.669h1.537c.737,0,1.536.072,1.536.972,0,.857-.765.976-1.576.976h-1.5Zm1.554,6.625H97.784V28.287H99.2c1.106,0,1.923.5,1.923,1.628C101.126,31.279,100.181,31.54,99.338,31.54Z" transform="translate(-15.179 -0.034)"/><path class="a" d="M113.537,27.584l-.11-.039.116-.024a1.763,1.763,0,0,0,1.206-1.959c-.023-1.29-1.3-2.126-3.379-2.126h-3.345v9.457h3.585c2.312,0,3.487-.914,3.487-2.8A2.45,2.45,0,0,0,113.537,27.584Zm-3.7-2.669h1.537c.737,0,1.537.072,1.537.972,0,.857-.765.976-1.576.976h-1.5ZM111.4,31.54h-1.555V28.287h1.419c1.106,0,1.922.5,1.922,1.628C113.183,31.279,112.238,31.54,111.4,31.54Z" transform="translate(-17.514 -0.034)"/><path class="a" d="M56.892,23.686l3.142,5.475.2.325V23.435h1.632V32.89H60.337L56.963,27.1l-.387-.641,0,6.432H54.952V23.435h1.776Z" transform="translate(-7.236 -0.034)"/><path class="a" d="M17.587,29.348a4.042,4.042,0,0,0,.9,2.951,2.818,2.818,0,0,0,2.151.861,3.42,3.42,0,0,0,3.041-1.493V23.435H22v5.987c0,1.818-.653,2.068-1.358,2.068a1.415,1.415,0,0,1-.989-.452,2.6,2.6,0,0,1-.488-2.255l.037-.356" transform="translate(0 -0.034)"/><g transform="translate(26.348 23.258)"><path class="a" d="M29.623,31.8a5.427,5.427,0,0,1-1.17-3.589,5.455,5.455,0,0,1,1.181-3.6,4.082,4.082,0,0,1,6.061,0,5.468,5.468,0,0,1,1.193,3.614A5.422,5.422,0,0,1,35.708,31.8a4.084,4.084,0,0,1-6.085,0ZM35.1,28.261c0-2.135-1.034-3.382-2.434-3.382s-2.432,1.247-2.432,3.342,1.033,3.314,2.432,3.314S35.1,30.277,35.1,28.261Z" transform="translate(-28.453 -23.258)"/></g><g transform="translate(69.752 23.258)"><path class="a" d="M83.45,31.8a5.427,5.427,0,0,1-1.17-3.589,5.451,5.451,0,0,1,1.182-3.6,4.082,4.082,0,0,1,6.061,0,5.472,5.472,0,0,1,1.193,3.614A5.422,5.422,0,0,1,89.535,31.8a4.084,4.084,0,0,1-6.085,0Zm5.482-3.536c0-2.135-1.034-3.382-2.433-3.382s-2.434,1.247-2.434,3.342S85.1,31.535,86.5,31.535,88.932,30.277,88.932,28.261Z" transform="translate(-82.28 -23.258)"/></g></g></svg>