<svg xmlns="http://www.w3.org/2000/svg" width="80" height="12.888" viewBox="0 0 80 12.888"><defs><style>.a{fill:#141215;}.b{fill:#da0010;}</style></defs><g transform="translate(-286.625 -276.001)"><path class="a" d="M297.048,303.317h12.064v-.934h-3.069l-4.331-3.255v-.168l3.413-1.343h3.712v-1.07H297.452v1.07H299.2c.3,0,.247.029-.124.163l-4.319,1.7v-1.868h1.475v-1.07h-9.611v1.07h3.208v4.777c0-.014-3.208,0-3.208,0v.923h9.613l0-.923h-1.475v-1.225l1.87-.719,1.835,1.707v.249c-.2,0-1.417-.012-1.417-.012Z" transform="translate(0 -14.428)"/><path class="a" d="M412.167,298.218v2.937c0,.744,1.449,1.462,3.814,1.462,2.624,0,3.964-.553,3.964-1.641V299.9h-1.633v.538c0,.355-.093,1.178-1.267,1.178s-1.312-.722-1.312-.929v-2.471h2.541v-.684h-2.615v-1.823h-2.383c-.422,1.095-1.206,1.854-3.316,1.854v.653Z" transform="translate(-86.606 -13.84)"/><path class="a" d="M457.352,303.607c0-1.11.765-1.692,2.242-1.692s2.242.582,2.242,1.692-.766,1.692-2.242,1.692-2.242-.583-2.242-1.692m-4.113,0c0,1.707,2.646,2.673,6.355,2.673s6.355-.966,6.355-2.673-2.646-2.672-6.355-2.672-6.355.966-6.355,2.672" transform="translate(-116.996 -17.509)"/><path class="a" d="M375.349,306.554v.564h8.062v-.564h-2.4v-4.426h-5.667v.682l2.172,0v3.748Z" transform="translate(-62.302 -18.346)"/><path class="b" d="M376.7,279.12a3.12,3.12,0,1,1,3.12,3.12,3.119,3.119,0,0,1-3.12-3.12" transform="translate(-63.254)"/><path class="a" d="M504.547,302.506v.529H506.7v3.69h-2.148v.591h6.761v-.591h-1.229v-.935c0-1.13.608-2.679,2.219-2.679,1.487,0,1.605.967,1.605,1.193v2.42h-1.4v.591h7.15v-.591h-1.971s-.178.029-.178-.456v-2.328c0-.321-.126-.915-1.133-1.209a11.512,11.512,0,0,0-2.8-.321,5.112,5.112,0,0,0-3.21.868c-.1.072-.189,0-.193-.111-.006-.16,0-.662,0-.662Z" transform="translate(-153.025 -18.545)"/></g></svg>