<svg xmlns="http://www.w3.org/2000/svg" width="80" height="27.704" viewBox="0 0 80 27.704"><defs><style>.a{fill:#202324;}</style></defs><g transform="translate(-721.217 -4402.386)"><path class="a" d="M117.594,50.541a2.587,2.587,0,0,1-2.734-2.42.507.507,0,0,0-.469-.42l-.622,0a1.911,1.911,0,0,1-1.539-.791h0a1.934,1.934,0,0,1-.24-.441,1.911,1.911,0,0,1-.128-.692,1.861,1.861,0,0,1,.062-.468c.116-.44.068-.436-.144-.5a2.082,2.082,0,0,1-.625-.308,1.89,1.89,0,0,1-.412-.415h0a1.936,1.936,0,0,1-.24-.441,1.9,1.9,0,0,1,.248-1.82,1.866,1.866,0,0,1,.415-.411h0a2,2,0,0,1,.44-.241c.384-.147.553-.072.439-.36a1.908,1.908,0,0,1,.664-2.231h0a1.972,1.972,0,0,1,.441-.241,1.9,1.9,0,0,1,.692-.128l4.152.016c.269,0,.434-.152.436-.237a2.731,2.731,0,0,1,2.718-2.6l5.717.021a.362.362,0,0,1,.054,0c.046,0,.093,0,.14,0h.3a.474.474,0,0,1,.133.022c.135.011.276.023.409.041a7.6,7.6,0,0,1,6.569,7.538,7.7,7.7,0,0,1-.068.984,7.609,7.609,0,0,1-6.512,6.5h0a7.9,7.9,0,0,1-1.024.067Zm5.659-6.63a.5.5,0,0,1-.006,1l-9.6-.033a.918.918,0,0,0-.192.047.893.893,0,0,0-.211.114h0a.935.935,0,0,0-.378.741.9.9,0,0,0,.06.328.915.915,0,0,0,.113.21v0a.925.925,0,0,0,.74.378l9.593.036a.507.507,0,0,1,.243.069h0l.007,0,0,0a.325.325,0,0,1,.028.018l.032.022h0l.005.006a.492.492,0,0,1,.192.39.5.5,0,0,1-.5.5l-7.159-.034c-.812,0,.133,1.829,1.228,1.832l9.421.023a6.714,6.714,0,0,0,.89-.056,6.6,6.6,0,0,0,5.653-5.646,6.872,6.872,0,0,0,.058-.858,6.533,6.533,0,0,0-6.419-6.6h-.018l-5.875,0a1.9,1.9,0,0,0-1.646,1.383c-.036.256-.074.428.382.431l6.941.023a.5.5,0,0,1-.006,1l-12.994-.033a.9.9,0,0,0-.328.059.914.914,0,0,0-.21.114h0a.9.9,0,0,0-.2.2.912.912,0,0,0-.119.868.978.978,0,0,0,.114.21v0a.926.926,0,0,0,.74.378l9.539.046a.5.5,0,0,1-.006,1l-11.07-.045a.9.9,0,0,0-.328.059.931.931,0,0,0-.209.113h0a.932.932,0,0,0-.378.742.9.9,0,0,0,.059.328.915.915,0,0,0,.114.21v0a.906.906,0,0,0,.2.2.92.92,0,0,0,.54.179Z" transform="translate(636.831 4367)"/><path class="a" d="M198.63,86.3a6.04,6.04,0,0,1-3.745,1.414,4.825,4.825,0,0,1-2.142-.413,3.8,3.8,0,0,1-1.393-1.1,3.669,3.669,0,0,1-.591-1.127,4.358,4.358,0,0,1,0-2.522,3.672,3.672,0,0,1,.591-1.127,3.8,3.8,0,0,1,1.393-1.1,4.826,4.826,0,0,1,2.142-.413,5.9,5.9,0,0,1,2.3.516,6.059,6.059,0,0,1,1.441.923l-.112.2a.831.831,0,0,1-1.132.314l-.128-.073a4.524,4.524,0,0,0-2.165-.6,3.334,3.334,0,0,0-2.111.65,2.444,2.444,0,0,0-.69.873,2.736,2.736,0,0,0,0,2.2,2.447,2.447,0,0,0,.69.873,3.339,3.339,0,0,0,2.111.65,4.525,4.525,0,0,0,2.165-.6l.118-.067a.831.831,0,0,1,1.133.315l.122.216" transform="translate(592.469 4342.377)"/><path class="a" d="M58.227,87.745a.738.738,0,0,1-.686-.362l-1.7-2.481a.491.491,0,0,0-.458-.241H53.949c-.2,0-.277.081-.277.277v2.808H52.217V80.2h4.817a2.23,2.23,0,0,1,.5,4.4c-.1.024-.124.086-.067.171l2.018,2.972Zm-4.277-4.326h2.973a.99.99,0,1,0,0-1.981H53.949c-.2,0-.277.081-.277.277v1.426c0,.2.081.277.277.277" transform="translate(669 4342.211)"/><path class="a" d="M145.071,84.714v1.514c0,.2.081.277.277.277h5.1v1.239h-6.831V80.2h6.7v1.238h-4.968c-.2,0-.277.081-.277.277v1.238c0,.2.081.277.277.277h3.325v1.207h-3.325c-.2,0-.277.081-.277.277" transform="translate(618.443 4342.211)"/><path class="a" d="M166.661,80.2h.846a1.011,1.011,0,0,1,.795.336l4.4,4.524c.088.091.19.05.19-.077V80.2h1.324v7.545H173.5a1.012,1.012,0,0,1-.794-.334l-4.53-4.637c-.089-.091-.19-.049-.19.077v4.893h-1.325V80.2" transform="translate(605.696 4342.211)"/><path class="a" d="M81.045,83.23v1.207H77.72c-.2,0-.277.08-.277.277v1.514c0,.2.08.277.277.277h5.1v1.239H75.988V80.2h6.7v1.238H77.72c-.2,0-.277.081-.277.277v1.238c0,.2.08.277.277.277h3.325" transform="translate(655.851 4342.211)"/><path class="a" d="M104.41,81.152a1.109,1.109,0,0,1-1.467.467,4.528,4.528,0,0,0-1.817-.442,3.5,3.5,0,0,0-1.052.143,1.307,1.307,0,0,0-.563.332.69.69,0,0,0-.214.487c0,.647.916.769,1.341.842.565.1,1.135.148,1.7.244,1.161.2,2.335.578,2.335,2.033a2.243,2.243,0,0,1-.482,1.417,2.678,2.678,0,0,1-1.389.841,5.632,5.632,0,0,1-1.522.2,7.563,7.563,0,0,1-3.45-1.063l.034-.088a1.11,1.11,0,0,1,1.465-.626c.114.048.235.1.362.143a4.81,4.81,0,0,0,1.62.349,3.041,3.041,0,0,0,1.282-.244,1.388,1.388,0,0,0,.492-.37.745.745,0,0,0,.187-.482c0-.645-.873-.775-1.3-.851-.557-.1-1.12-.143-1.678-.231-1.146-.181-2.328-.5-2.328-1.951a2.15,2.15,0,0,1,.625-1.579,3.4,3.4,0,0,1,2.5-.82,6.094,6.094,0,0,1,1.522.21,6.447,6.447,0,0,1,1.871.92l-.064.118" transform="translate(643.77 4342.375)"/><path class="a" d="M119.9,86.564a1.108,1.108,0,0,1,1.465-.626c.114.048.235.1.363.143a4.818,4.818,0,0,0,1.62.35,3.046,3.046,0,0,0,1.282-.244,1.389,1.389,0,0,0,.492-.37.745.745,0,0,0,.187-.481c0-.646-.873-.776-1.3-.851-.557-.1-1.12-.143-1.678-.231-1.146-.181-2.329-.5-2.329-1.951a2.151,2.151,0,0,1,.626-1.58,3.4,3.4,0,0,1,2.5-.82,6.1,6.1,0,0,1,1.523.21,6.445,6.445,0,0,1,1.87.92l-.064.118a1.108,1.108,0,0,1-1.467.467,4.53,4.53,0,0,0-1.817-.442,3.5,3.5,0,0,0-1.052.143,1.3,1.3,0,0,0-.563.332.691.691,0,0,0-.213.487c0,.647.915.769,1.341.842.565.1,1.135.147,1.7.245,1.16.2,2.334.578,2.334,2.033a2.244,2.244,0,0,1-.482,1.416,2.678,2.678,0,0,1-1.389.841,5.648,5.648,0,0,1-1.522.2,7.556,7.556,0,0,1-3.449-1.063l.034-.088" transform="translate(631.579 4342.375)"/><path class="a" d="M221.018,84.437h-3.38c-.157,0-.222.064-.222.222v1.57c0,.2.081.277.277.277h5.1v1.239h-6.83V80.2h6.7v1.238h-5.023c-.157,0-.222.065-.222.222v1.349c0,.157.064.222.222.222h3.38v1.207" transform="translate(578.425 4342.211)"/></g></svg>